<svg xmlns="http://www.w3.org/2000/svg" viewBox="0 0 32.58 31.74"><defs><style>.cls-1{fill:#231e1b;fill-rule:evenodd;}</style></defs><g id="Livello_2" data-name="Livello 2"><g id="Layer_1" data-name="Layer 1"><path class="cls-1" d="M16.29,0a16.28,16.28,0,0,0-5.15,31.72c.82.15,1.11-.36,1.11-.79s0-1.41,0-2.77C7.7,29.15,6.74,26,6.74,26A4.3,4.3,0,0,0,4.93,23.6c-1.47-1,.12-1,.12-1a3.43,3.43,0,0,1,2.49,1.68,3.46,3.46,0,0,0,4.74,1.35,3.43,3.43,0,0,1,1-2.17c-3.62-.41-7.42-1.81-7.42-8a6.27,6.27,0,0,1,1.67-4.36,5.94,5.94,0,0,1,.16-4.31s1.37-.44,4.48,1.67a15.41,15.41,0,0,1,8.16,0c3.11-2.11,4.47-1.67,4.47-1.67A5.91,5.91,0,0,1,25,11.06a6.27,6.27,0,0,1,1.67,4.36c0,6.26-3.81,7.63-7.44,8a3.89,3.89,0,0,1,1.11,3c0,2.17,0,3.93,0,4.46s.29.94,1.12.78A16.27,16.27,0,0,0,16.29,0Z"/></g></g></svg>